<svg id="Layer_2" data-name="Layer 2" xmlns="http://www.w3.org/2000/svg" width="60.523" height="60.519" viewBox="0 0 60.523 60.519">
  <g id="new_logo_copy" data-name="new logo copy">
    <path id="Path_1" data-name="Path 1" d="M60.523,48.11v-5.2a.718.718,0,0,0-.216-.513L42.463,25.074a.713.713,0,0,0-.911-.069l-6.085,4.338a.713.713,0,0,1-.746.051h0a.716.716,0,0,1-.3-.964L48.743,1.041A.714.714,0,0,0,48.11,0h-5.2a.714.714,0,0,0-.513.217L25.074,18.06a.713.713,0,0,0-.069.911l4.338,6.084a.713.713,0,0,1,.051.746h0a.713.713,0,0,1-.964.3L1.041,11.781A.714.714,0,0,0,0,12.414v5.2a.714.714,0,0,0,.217.513L18.06,35.449a.713.713,0,0,0,.911.069l6.084-4.338a.713.713,0,0,1,.746-.051h0a.713.713,0,0,1,.3.964L11.781,59.478a.714.714,0,0,0,.632,1.041h5.2a.718.718,0,0,0,.513-.216l17.319-17.84a.713.713,0,0,0,.069-.911L31.18,35.467a.713.713,0,0,1-.051-.746h0a.716.716,0,0,1,.964-.3L59.478,48.743a.714.714,0,0,0,1.045-.634Z" fill="#7fb9f2"/>
  </g>
</svg>
