<svg xmlns="http://www.w3.org/2000/svg" viewBox="0 0 465.18 465.18"><defs><style>.cls-1{fill:#fff;}</style></defs><g id="Layer_2" data-name="Layer 2"><g id="new_logo_copy" data-name="new logo copy"><path class="cls-1" d="M465.18,369.77v-40a5.52,5.52,0,0,0-1.66-3.94L326.37,192.72a5.48,5.48,0,0,0-7-.53L272.6,225.53a5.48,5.48,0,0,1-5.73.39h0a5.5,5.5,0,0,1-2.32-7.41L374.64,8a5.49,5.49,0,0,0-4.87-8h-40a5.49,5.49,0,0,0-3.94,1.67L192.72,138.81a5.48,5.48,0,0,0-.53,7l33.34,46.76a5.48,5.48,0,0,1,.39,5.73h0a5.48,5.48,0,0,1-7.41,2.32L8,90.55a5.49,5.49,0,0,0-8,4.86v40a5.49,5.49,0,0,0,1.67,3.94L138.81,272.46a5.48,5.48,0,0,0,7,.53l46.76-33.34a5.48,5.48,0,0,1,5.73-.39h0a5.48,5.48,0,0,1,2.32,7.41L90.55,457.15a5.49,5.49,0,0,0,4.86,8h40a5.52,5.52,0,0,0,3.94-1.66L272.46,326.37a5.48,5.48,0,0,0,.53-7L239.65,272.6a5.48,5.48,0,0,1-.39-5.73h0a5.5,5.5,0,0,1,7.41-2.32L457.15,374.64A5.49,5.49,0,0,0,465.18,369.77Z"/></g></g></svg>